<?xml version="1.0" encoding="utf-8"?>
<!-- Generator: Adobe Illustrator 18.0.0, SVG Export Plug-In . SVG Version: 6.00 Build 0)  -->
<!DOCTYPE svg PUBLIC "-//W3C//DTD SVG 1.1//EN" "http://www.w3.org/Graphics/SVG/1.1/DTD/svg11.dtd">
<svg version="1.1" id="Arrow_1_" xmlns="http://www.w3.org/2000/svg" xmlns:xlink="http://www.w3.org/1999/xlink" x="0px" y="0px"
	 width="24px" height="24px" viewBox="0 0 500 500" enable-background="new 0 0 500 500" xml:space="preserve"
	 fill="#dcdcdc">
  <metadata>
    <?xpacket begin="﻿" id="W5M0MpCehiHzreSzNTczkc9d"?>
    <x:xmpmeta xmlns:x="adobe:ns:meta/" x:xmptk="Adobe XMP Core 5.6-c011 79.156380, 2014/06/19-23:40:37        ">
     <rdf:RDF xmlns:rdf="http://www.w3.org/1999/02/22-rdf-syntax-ns#">
      <rdf:Description rdf:about=""
        xmlns:xmpMM="http://ns.adobe.com/xap/1.0/mm/"
        xmlns:stEvt="http://ns.adobe.com/xap/1.0/sType/ResourceEvent#"
        xmlns:xmp="http://ns.adobe.com/xap/1.0/"
        xmlns:xmpRights="http://ns.adobe.com/xap/1.0/rights/"
        xmlns:dc="http://purl.org/dc/elements/1.1/"
       xmpMM:DocumentID="xmp.did:83d25d6a9aecba790195773f150172d4"
       xmpMM:OriginalDocumentID="xmp.did:83d25d6a9aecba790195773f150172d4"
       xmpMM:InstanceID="xmp.iid:83d25d6a9aecba790195773f150172d4"
       xmp:ModifyDate="2015-04-14T12:28:11+02:00"
       xmp:MetadataDate="2015-04-14T12:28:11+02:00"
       xmpRights:Marked="True"
       xmpRights:WebStatement="http://www.adobe.com/legal/general-terms.html">
       <xmpMM:History>
        <rdf:Seq>
         <rdf:li
          stEvt:action="saved"
          stEvt:instanceID="xmp.iid:83d25d6a9aecba790195773f150172d4"
          stEvt:when="2015-04-14T12:28:11+02:00"/>
        </rdf:Seq>
       </xmpMM:History>
       <xmpRights:UsageTerms>
        <rdf:Alt>
         <rdf:li xml:lang="x-default">This work is licensed under the Adobe General Terms of Use http://www.adobe.com/legal/general-terms.html.</rdf:li>
        </rdf:Alt>
       </xmpRights:UsageTerms>
       <dc:publisher>
        <rdf:Bag>
         <rdf:li>Adobe Systems Incorporated</rdf:li>
        </rdf:Bag>
       </dc:publisher>
      </rdf:Description>
     </rdf:RDF>
    </x:xmpmeta>
    <?xpacket end="r"?>
  </metadata>
<g>
	<path d="M393.1,31.4H287.4C281.3,14.3,265.1,2,246,2s-35.3,12.3-41.4,29.4H98.9c-24.3,0-44.1,19.8-44.1,44.1v14.7h382.4V75.5
		C437.2,51.2,417.4,31.4,393.1,31.4z"/>
	<path d="M84.2,457.9c0,24.3,19.8,44.1,44.1,44.1h235.3c24.3,0,44.1-19.8,44.1-44.1V119.6H84.2V457.9z M319.5,178.5
		c0-8.1,6.6-14.7,14.7-14.7c8.1,0,14.7,6.6,14.7,14.7v235.3c0,8.1-6.6,14.7-14.7,14.7c-8.1,0-14.7-6.6-14.7-14.7V178.5z
		 M231.3,178.5c0-8.1,6.6-14.7,14.7-14.7s14.7,6.6,14.7,14.7v235.3c0,8.1-6.6,14.7-14.7,14.7s-14.7-6.6-14.7-14.7V178.5z
		 M143.1,178.5c0-8.1,6.6-14.7,14.7-14.7c8.1,0,14.7,6.6,14.7,14.7v235.3c0,8.1-6.6,14.7-14.7,14.7c-8.1,0-14.7-6.6-14.7-14.7V178.5
		z"/>
</g>
</svg>
