<?xml version="1.0" encoding="utf-8"?>
<!-- Generator: Adobe Illustrator 18.0.0, SVG Export Plug-In . SVG Version: 6.00 Build 0)  -->
<!DOCTYPE svg PUBLIC "-//W3C//DTD SVG 1.1//EN" "http://www.w3.org/Graphics/SVG/1.1/DTD/svg11.dtd">
<svg version="1.1" id="Arrow_1_" xmlns="http://www.w3.org/2000/svg" xmlns:xlink="http://www.w3.org/1999/xlink" x="0px" y="0px"
	 width="24px" height="24px" viewBox="0 0 500 500" enable-background="new 0 0 500 500" xml:space="preserve" fill="#dcdcdc">
  <metadata>
    <?xpacket begin="﻿" id="W5M0MpCehiHzreSzNTczkc9d"?>
    <x:xmpmeta xmlns:x="adobe:ns:meta/" x:xmptk="Adobe XMP Core 5.6-c011 79.156380, 2014/06/19-23:40:37        ">
     <rdf:RDF xmlns:rdf="http://www.w3.org/1999/02/22-rdf-syntax-ns#">
      <rdf:Description rdf:about=""
        xmlns:xmpMM="http://ns.adobe.com/xap/1.0/mm/"
        xmlns:stEvt="http://ns.adobe.com/xap/1.0/sType/ResourceEvent#"
        xmlns:xmp="http://ns.adobe.com/xap/1.0/"
        xmlns:xmpRights="http://ns.adobe.com/xap/1.0/rights/"
        xmlns:dc="http://purl.org/dc/elements/1.1/"
       xmpMM:DocumentID="xmp.did:da6dff945efdd2f92e2e817ad55ec6a1"
       xmpMM:OriginalDocumentID="xmp.did:da6dff945efdd2f92e2e817ad55ec6a1"
       xmpMM:InstanceID="xmp.iid:da6dff945efdd2f92e2e817ad55ec6a1"
       xmp:ModifyDate="2015-04-14T15:38:02+02:00"
       xmp:MetadataDate="2015-04-14T15:38:02+02:00"
       xmpRights:Marked="True"
       xmpRights:WebStatement="http://www.adobe.com/legal/general-terms.html">
       <xmpMM:History>
        <rdf:Seq>
         <rdf:li
          stEvt:action="saved"
          stEvt:instanceID="xmp.iid:da6dff945efdd2f92e2e817ad55ec6a1"
          stEvt:when="2015-04-14T15:38:02+02:00"/>
        </rdf:Seq>
       </xmpMM:History>
       <xmpRights:UsageTerms>
        <rdf:Alt>
         <rdf:li xml:lang="x-default">This work is licensed under the Adobe General Terms of Use http://www.adobe.com/legal/general-terms.html.</rdf:li>
        </rdf:Alt>
       </xmpRights:UsageTerms>
       <dc:publisher>
        <rdf:Bag>
         <rdf:li>Adobe Systems Incorporated</rdf:li>
        </rdf:Bag>
       </dc:publisher>
      </rdf:Description>
     </rdf:RDF>
    </x:xmpmeta>
    <?xpacket end="r"?>
  </metadata>
<g id="_x37_81-ships-wheel-selected_x40_2x.png">
	<g>
		<path d="M491.1,241.1H446c-2.1-47.5-21-90.5-51.1-123.3l31.9-31.9c3.5-3.5,3.5-9.1,0-12.6s-9.1-3.5-12.6,0l-31.9,31.9
			c-32.9-30-75.9-48.9-123.3-51.1V8.9c0-4.9-4-8.9-8.9-8.9c-4.9,0-8.9,4-8.9,8.9V54c-47.5,2.1-90.5,21.1-123.3,51.1L85.8,73.2
			c-3.5-3.5-9.1-3.5-12.6,0c-3.5,3.5-3.5,9.1,0,12.6l31.9,31.9c-30,32.9-48.9,75.9-51.1,123.4H8.9c-4.9,0-8.9,4-8.9,8.9
			s4,8.9,8.9,8.9H54c2.1,47.5,21.1,90.5,51.1,123.3l-31.9,31.9c-3.5,3.5-3.5,9.1,0,12.6c3.5,3.5,9.1,3.5,12.6,0l31.9-31.9
			c32.9,30,75.9,48.9,123.3,51.1v45.1c0,4.9,4,8.9,8.9,8.9c4.9,0,8.9-4,8.9-8.9V446c47.5-2.1,90.5-21,123.3-51.1l31.9,31.9
			c3.5,3.5,9.1,3.5,12.6,0s3.5-9.1,0-12.6l-31.9-31.9c30-32.9,48.9-75.9,51.1-123.3h45.1c4.9,0,8.9-4,8.9-8.9S496,241.1,491.1,241.1
			z M258.9,125.5c27.8,2,53,13.1,72.8,30.2l-38.1,38.1c-9.8-7.7-21.6-13-34.7-14.6L258.9,125.5L258.9,125.5z M241.1,125.5v53.7
			c-13,1.6-24.8,6.9-34.7,14.6l-38.1-38.1C188.1,138.5,213.3,127.4,241.1,125.5z M155.7,168.3l38.2,38.2
			c-7.6,9.8-12.8,21.6-14.4,34.6h-54C127.4,213.3,138.5,188.1,155.7,168.3z M125.4,258.9h54c1.6,13,6.8,24.8,14.4,34.6l-38.2,38.2
			C138.5,311.9,127.4,286.7,125.4,258.9z M241.1,374.5c-27.8-2-53-13-72.8-30.2l38.1-38.1c9.8,7.7,21.6,13,34.7,14.6V374.5z
			 M250,285.7c-19.7,0-35.7-16-35.7-35.7s16-35.7,35.7-35.7s35.7,16,35.7,35.7S269.7,285.7,250,285.7z M258.9,374.5v-53.7
			c13-1.6,24.8-6.9,34.7-14.6l38.1,38.1C311.9,361.5,286.7,372.6,258.9,374.5z M344.3,331.7l-38.2-38.2c7.6-9.9,12.8-21.7,14.4-34.6
			h54C372.6,286.7,361.5,311.9,344.3,331.7z M320.6,241.1c-1.6-13-6.8-24.8-14.4-34.6l38.2-38.2c17.2,19.8,28.3,45,30.2,72.8H320.6z
			"/>
	</g>
</g>
</svg>
