<?xml version="1.0" encoding="utf-8"?>
<!-- Generator: Adobe Illustrator 18.0.0, SVG Export Plug-In . SVG Version: 6.00 Build 0)  -->
<!DOCTYPE svg PUBLIC "-//W3C//DTD SVG 1.1//EN" "http://www.w3.org/Graphics/SVG/1.1/DTD/svg11.dtd">
<svg version="1.1" id="Arrow_1_" xmlns="http://www.w3.org/2000/svg" xmlns:xlink="http://www.w3.org/1999/xlink" x="0px" y="0px"
	 width="24px" height="24px" viewBox="0 0 500 500" enable-background="new 0 0 500 500" xml:space="preserve"
	 fill="#dcdcdc">
  <metadata>
    <?xpacket begin="﻿" id="W5M0MpCehiHzreSzNTczkc9d"?>
    <x:xmpmeta xmlns:x="adobe:ns:meta/" x:xmptk="Adobe XMP Core 5.6-c011 79.156380, 2014/06/19-23:40:37        ">
     <rdf:RDF xmlns:rdf="http://www.w3.org/1999/02/22-rdf-syntax-ns#">
      <rdf:Description rdf:about=""
        xmlns:xmpMM="http://ns.adobe.com/xap/1.0/mm/"
        xmlns:stEvt="http://ns.adobe.com/xap/1.0/sType/ResourceEvent#"
        xmlns:xmp="http://ns.adobe.com/xap/1.0/"
        xmlns:xmpRights="http://ns.adobe.com/xap/1.0/rights/"
        xmlns:dc="http://purl.org/dc/elements/1.1/"
       xmpMM:DocumentID="xmp.did:d5a5926517461013c641e20575f200e3"
       xmpMM:OriginalDocumentID="xmp.did:d5a5926517461013c641e20575f200e3"
       xmpMM:InstanceID="xmp.iid:d5a5926517461013c641e20575f200e3"
       xmp:ModifyDate="2015-04-10T10:01+02:00"
       xmp:MetadataDate="2015-04-10T10:01+02:00"
       xmpRights:Marked="True"
       xmpRights:WebStatement="http://www.adobe.com/legal/general-terms.html">
       <xmpMM:History>
        <rdf:Seq>
         <rdf:li
          stEvt:action="saved"
          stEvt:instanceID="xmp.iid:d5a5926517461013c641e20575f200e3"
          stEvt:when="2015-04-10T10:01+02:00"/>
        </rdf:Seq>
       </xmpMM:History>
       <xmpRights:UsageTerms>
        <rdf:Alt>
         <rdf:li xml:lang="x-default">This work is licensed under the Adobe General Terms of Use http://www.adobe.com/legal/general-terms.html.</rdf:li>
        </rdf:Alt>
       </xmpRights:UsageTerms>
       <dc:publisher>
        <rdf:Bag>
         <rdf:li>Adobe Systems Incorporated</rdf:li>
        </rdf:Bag>
       </dc:publisher>
      </rdf:Description>
     </rdf:RDF>
    </x:xmpmeta>
    <?xpacket end="r"?>
  </metadata>
<g id="_x36_57-paint-bucket.png">
	<g>
		<path d="M452,230.7c-19.2-57.7-57.7-76.9-76.9-76.9c-38.4,0-57.7,19.2-57.7,19.2l115.3,115.3c0,0,0,38.4-19.2,115.3
			c0,0,0,38.4,38.4,38.4s38.4-38.4,38.4-38.4C471.2,326.8,473.9,296.4,452,230.7z M279,187.2c0.7,0.6,1.4,1,2,1.7
			c22.5,22.6,22.5,59.3,0,81.9c-22.5,22.6-59,22.6-81.6,0s-22.5-59.3,0-81.9c0.8-0.8,1.8-1.4,2.7-2.2v-79.4l-57.7,57.7V76.9
			c0-21.8,17.2-38.4,38.4-38.4s38.4,16.6,38.4,38.4v120.3c-2.9,1.7-5.9,3.1-8.4,5.6c-15,15.1-15,39.5,0,54.6
			c15,15.1,39.4,15.1,54.4,0s15-39.5,0-54.6c-2.2-2.2-5-3.5-7.6-5V76.9c0-43.6-34.4-76.9-76.9-76.9s-76.9,33.3-76.9,76.9v126.6
			L13.6,296C-2.2,311.8,29.8,369.3,85,424.5c55.2,55.2,112.7,87.2,128.5,71.4l199.8-200L279,161.6C279,161.6,279,187.2,279,187.2z"
			/>
	</g>
</g>
</svg>
