<?xml version="1.0" encoding="utf-8"?>
<!-- Generator: Adobe Illustrator 21.1.0, SVG Export Plug-In . SVG Version: 6.00 Build 0)  -->
<svg version="1.1" xmlns="http://www.w3.org/2000/svg" xmlns:xlink="http://www.w3.org/1999/xlink" x="0px" y="0px"
	 viewBox="0 0 24 24" style="enable-background:new 0 0 24 24;" xml:space="preserve" width="40px" height="40px">
<style type="text/css">
	.st0{fill:#DCDCDC;}
</style>
<g id="Layer_1">
	<g>
		<path class="st0" d="M11.7,15.3c-0.9-0.2-1.9,0.4-2.5,1.9c-0.6,1.5-1.7,2.1-1.9,2c1.2,0.4,4.7,1.5,5.6-2.6
			C12.4,15.7,11.7,15.3,11.7,15.3z"/>
		<path class="st0" d="M13,13.7c-0.3,0.3-0.3,0.5-0.7,1.1c0.2,0.2,0.7,0.5,1,1.2c0.6-0.4,0.9-0.4,1.2-0.7c2.2-1.8,7.5-8.3,7.3-8.5
			C21.6,6.6,14.9,11.7,13,13.7z"/>
	</g>
</g>
<g id="Layer_2">
	<path class="st0" d="M6.6,7.9c-2.2,0-4,1.8-4,4v0.6h0.6V12c0-1.9,1.5-3.4,3.3-3.4s3.3,1.5,3.3,3.4v0.6h0.6V12
		C10.5,9.7,8.8,7.9,6.6,7.9z M6.6,9.2c-1.5,0-2.7,1.2-2.7,2.7v0.6h0.6V12c0-1.2,0.9-2.1,2.1-2.1s2.1,1,2.1,2.1v0.6h0.6V12
		C9.3,10.4,8.1,9.2,6.6,9.2z M6.6,6.7C3.7,6.7,1.4,9,1.4,12v0.6H2V12c0-2.6,2.1-4.6,4.6-4.6s4.6,2.1,4.6,4.6v0.6h0.6V12
		C11.8,9,9.5,6.7,6.6,6.7z"/>
</g>
</svg>
