<?xml version="1.0" encoding="utf-8"?>
<!-- Generator: Adobe Illustrator 18.0.0, SVG Export Plug-In . SVG Version: 6.00 Build 0)  -->
<!DOCTYPE svg PUBLIC "-//W3C//DTD SVG 1.1 Basic//EN" "http://www.w3.org/Graphics/SVG/1.1/DTD/svg11-basic.dtd">
<svg version="1.1" baseProfile="basic" id="Arrow_1_"
	 xmlns="http://www.w3.org/2000/svg" xmlns:xlink="http://www.w3.org/1999/xlink" x="0px" y="0px" width="24px" height="24px"
	 viewBox="0 0 500 500" xml:space="preserve" fill="#dcdcdc"
	 >
  <metadata>
    <?xpacket begin="﻿" id="W5M0MpCehiHzreSzNTczkc9d"?>
    <x:xmpmeta xmlns:x="adobe:ns:meta/" x:xmptk="Adobe XMP Core 5.6-c011 79.156380, 2014/06/19-23:40:37        ">
     <rdf:RDF xmlns:rdf="http://www.w3.org/1999/02/22-rdf-syntax-ns#">
      <rdf:Description rdf:about=""
        xmlns:xmpMM="http://ns.adobe.com/xap/1.0/mm/"
        xmlns:stEvt="http://ns.adobe.com/xap/1.0/sType/ResourceEvent#"
        xmlns:xmp="http://ns.adobe.com/xap/1.0/"
        xmlns:xmpRights="http://ns.adobe.com/xap/1.0/rights/"
        xmlns:dc="http://purl.org/dc/elements/1.1/"
       xmpMM:DocumentID="xmp.did:ffc0c219a0496579f229889caac7df5d"
       xmpMM:OriginalDocumentID="xmp.did:ffc0c219a0496579f229889caac7df5d"
       xmpMM:InstanceID="xmp.iid:ffc0c219a0496579f229889caac7df5d"
       xmp:ModifyDate="2015-04-08T15:51:11+02:00"
       xmp:MetadataDate="2015-04-08T15:51:11+02:00"
       xmpRights:Marked="True"
       xmpRights:WebStatement="http://www.adobe.com/legal/general-terms.html">
       <xmpMM:History>
        <rdf:Seq>
         <rdf:li
          stEvt:action="saved"
          stEvt:instanceID="xmp.iid:ffc0c219a0496579f229889caac7df5d"
          stEvt:when="2015-04-08T15:51:11+02:00"/>
        </rdf:Seq>
       </xmpMM:History>
       <xmpRights:UsageTerms>
        <rdf:Alt>
         <rdf:li xml:lang="x-default">This work is licensed under the Adobe General Terms of Use http://www.adobe.com/legal/general-terms.html.</rdf:li>
        </rdf:Alt>
       </xmpRights:UsageTerms>
       <dc:publisher>
        <rdf:Bag>
         <rdf:li>Adobe Systems Incorporated</rdf:li>
        </rdf:Bag>
       </dc:publisher>
      </rdf:Description>
     </rdf:RDF>
    </x:xmpmeta>
    <?xpacket end="r"?>
  </metadata>
<g>
	<g>
		<path d="M490.7,63.8L436.1,9.1C430.2,3.3,422.3,0,414,0H31.3C14,0,0,14,0,31.2v437.4C0,486,14,500,31.3,500h437.4
			c17.3,0,31.3-14,31.3-31.3V85.9C499.9,77.7,496.6,69.7,490.7,63.8z M125,31.2h250v109.4c0,8.6-7,15.6-15.6,15.6H140.6
			c-8.6,0-15.6-7-15.6-15.6C125,140.6,125,31.2,125,31.2z M78.1,468.8V234.4h343.7v234.4H78.1z M468.6,468.8h-31.3V234.4v-15.6
			h-15.6H78.1H62.5v250H31.2V31.2h78.1v109.4c0,17.2,14.1,31.3,31.3,31.3h218.7c17.2,0,31.3-14.1,31.3-31.3V31.2H414l54.7,54.7
			L468.6,468.8L468.6,468.8z"/>
	</g>
	<g>
		<path d="M296.8,125h31.3c8.6,0,15.6-7,15.6-15.6V78.1c0-8.6-7-15.6-15.6-15.6h-31.3c-8.6,0-15.6,7-15.6,15.6v31.3
			C281.2,118,288.2,125,296.8,125z M296.8,78.1h31.3v31.3h-31.3V78.1z"/>
	</g>
</g>
</svg>
