<?xml version="1.0" encoding="utf-8"?>
<!-- Generator: Adobe Illustrator 18.0.0, SVG Export Plug-In . SVG Version: 6.00 Build 0)  -->
<!DOCTYPE svg PUBLIC "-//W3C//DTD SVG 1.1//EN" "http://www.w3.org/Graphics/SVG/1.1/DTD/svg11.dtd">
<svg version="1.1" id="Arrow_1_" xmlns="http://www.w3.org/2000/svg" xmlns:xlink="http://www.w3.org/1999/xlink" x="0px" y="0px"
	 width="24px" height="24px" viewBox="0 0 500 500" enable-background="new 0 0 500 500" xml:space="preserve" fill="#dcdcdc">
  <metadata>
    <?xpacket begin="﻿" id="W5M0MpCehiHzreSzNTczkc9d"?>
    <x:xmpmeta xmlns:x="adobe:ns:meta/" x:xmptk="Adobe XMP Core 5.6-c011 79.156380, 2014/06/19-23:40:37        ">
     <rdf:RDF xmlns:rdf="http://www.w3.org/1999/02/22-rdf-syntax-ns#">
      <rdf:Description rdf:about=""
        xmlns:xmpMM="http://ns.adobe.com/xap/1.0/mm/"
        xmlns:stEvt="http://ns.adobe.com/xap/1.0/sType/ResourceEvent#"
        xmlns:xmp="http://ns.adobe.com/xap/1.0/"
        xmlns:xmpRights="http://ns.adobe.com/xap/1.0/rights/"
        xmlns:dc="http://purl.org/dc/elements/1.1/"
       xmpMM:DocumentID="xmp.did:39acf6f4550a53fc87f665976e127b09"
       xmpMM:OriginalDocumentID="xmp.did:39acf6f4550a53fc87f665976e127b09"
       xmpMM:InstanceID="xmp.iid:39acf6f4550a53fc87f665976e127b09"
       xmp:ModifyDate="2015-04-15T16:13:37+02:00"
       xmp:MetadataDate="2015-04-15T16:13:37+02:00"
       xmpRights:Marked="True"
       xmpRights:WebStatement="http://www.adobe.com/legal/general-terms.html">
       <xmpMM:History>
        <rdf:Seq>
         <rdf:li
          stEvt:action="saved"
          stEvt:instanceID="xmp.iid:39acf6f4550a53fc87f665976e127b09"
          stEvt:when="2015-04-15T16:13:37+02:00"/>
        </rdf:Seq>
       </xmpMM:History>
       <xmpRights:UsageTerms>
        <rdf:Alt>
         <rdf:li xml:lang="x-default">This work is licensed under the Adobe General Terms of Use http://www.adobe.com/legal/general-terms.html.</rdf:li>
        </rdf:Alt>
       </xmpRights:UsageTerms>
       <dc:publisher>
        <rdf:Bag>
         <rdf:li>Adobe Systems Incorporated</rdf:li>
        </rdf:Bag>
       </dc:publisher>
      </rdf:Description>
     </rdf:RDF>
    </x:xmpmeta>
    <?xpacket end="r"?>
  </metadata>
<g id="_x39_23-spray-can-toolbar-selected_x40_2x.png">
	<g>
		<path d="M232.3,363.6h68.2V250h-68.2V363.6z M209.5,102.3V68.2c0-6.3-5.1-11.4-11.4-11.4c-6.3,0-11.4,5.1-11.4,11.4v34.1h-11.4
			l-79.5,68.2v11.4v295.5c0,12.5,10.2,22.7,22.7,22.7h159.1c12.5,0,22.7-10.2,22.7-22.7v-90.9h-79.5c-6.3,0-11.4-5.1-11.4-11.4
			V238.6c0-6.3,5.1-11.4,11.4-11.4h79.5v-45.5v-11.4l-79.5-68.2H209.5z M402.7,0c-1.3,0-2.5,0.3-3.7,0.8l0-0.1L239.9,57.5l0,0.1
			c-4.4,1.6-7.6,5.6-7.6,10.6c0,4.6,2.8,8.5,6.7,10.3l0,0l159.1,79.5l0,0c1.4,0.6,3,1,4.6,1c6.3,0,11.4-5.1,11.4-11.4V11.4
			C414.1,5.1,409,0,402.7,0z"/>
	</g>
</g>
</svg>
